General
Complete name                    : The Wind and the Lion.mkv
Format                           : Matroska
File size                        : 2.25 GiB
Duration                         : 1h 54mn
Overall bit rate                 : 2 820 Kbps


Video
ID                               : 1
Format                           : AVC

Codec ID                         : V_MPEG4/ISO/AVC
Duration                         : 1h 54mn
Bit rate                         : 2 123 Kbps
Width                            : 702 pixels
Height                           : 428 pixels
Display aspect ratio             : 2.35:1
Frame rate                       : 25.000 fps
Resolution                       : 8 bits
Colorimetry                      : 4:2:0
Scan type                        : Progressive
Bits/(Pixel*Frame)               : 0.283
Stream size                      : 1.70 GiB (75%)
Writing library                  : x264 core 79


Audio #1
ID                               : 2
Format                           : MPEG Audio
Format version                   : Version 1
Format profile                   : Layer 3
Mode                             : Joint stereo / MS Stereo
Codec ID                         : A_MPEG/L3
Codec ID/Hint                    : MP3
Duration                         : 1h 54mn
Bit rate mode                    : Constant
Bit rate                         : 128 Kbps
Channel(s)                       : 2 channels
Sampling rate                    : 48.0 KHz
Stream size                      : 105 MiB (5%)
Writing library                  : LAME3.98
Language                         : English

Audio #2
ID                               : 3
Format                           : MPEG Audio
Format version                   : Version 1
Format profile                   : Layer 3
Mode                             : Joint stereo / MS Stereo
Codec ID                         : A_MPEG/L3
Codec ID/Hint                    : MP3
Duration                         : 1h 54mn
Bit rate mode                    : Constant
Bit rate                         : 128 Kbps
Channel(s)                       : 2 channels
Sampling rate                    : 48.0 KHz
Stream size                      : 105 MiB (5%)
Writing library                  : LAME3.98
Language                         : French

Audio #3
ID                               : 4
Format                           : MPEG Audio
Format version                   : Version 1
Format profile                   : Layer 3
Mode                             : Joint stereo / MS Stereo
Codec ID                         : A_MPEG/L3
Codec ID/Hint                    : MP3
Duration                         : 1h 54mn
Bit rate mode                    : Constant
Bit rate                         : 128 Kbps
Channel(s)                       : 2 channels
Sampling rate                    : 48.0 KHz
Stream size                      : 105 MiB (5%)
Writing library                  : LAME3.98
Language                         : German

Audio #4
ID                               : 5
Format                           : MPEG Audio
Format version                   : Version 1
Format profile                   : Layer 3
Mode                             : Joint stereo / MS Stereo
Codec ID                         : A_MPEG/L3
Codec ID/Hint                    : MP3
Duration                         : 1h 54mn
Bit rate mode                    : Constant
Bit rate                         : 128 Kbps
Channel(s)                       : 2 channels
Sampling rate                    : 48.0 KHz
Stream size                      : 105 MiB (5%)
Writing library                  : LAME3.98
Language                         : Italian

Audio #5
ID                               : 6
Format                           : MPEG Audio
Format version                   : Version 1
Format profile                   : Layer 3
Mode                             : Joint stereo / MS Stereo
Codec ID                         : A_MPEG/L3
Codec ID/Hint                    : MP3
Duration                         : 1h 54mn
Bit rate mode                    : Constant
Bit rate                         : 128 Kbps
Channel(s)                       : 2 channels
Sampling rate                    : 48.0 KHz
Stream size                      : 105 MiB (5%)
Writing library                  : LAME3.98
Language                         : Spanish

Text #1
Language                         : English

Text #2
Language                         : French

Text #3
Language                         : German

Text #4
Language                         : Italian

Text #5
Language                         : Spanish

Text #6
Language                         : Dutch

Text #7
Language                         : Arabic

Text #8
Language                         : Czech

Text #9
Language                         : Danish

Text #10
Language                         : Finnish

Text #11
Language                         : Greek

Text #12
Language                         : ??????????

Text #13
Language                         : Hindi

Text #14
Language                         : Hungarian

Text #15
Language                         : Norwegian

Text #16
Language                         : Portuguese

Text #17
Language                         : Swedish

Text #18
Language                         : Turkish
